inDegrees=no
DataType=double
version=3
OpenSimVersion=4.4-2022-10-11-798caa840
endheader
time	elv_angle	shoulder_elv	shoulder_rot	elbow_flexion	pro_sup	deviation	flexion
2.4020851434	0.8020795584	0.6812252998	0.5731379390	1.2505037785	0.0000000000	0.0000000000	0.0000000000
2.4062554301	0.8020795584	0.6812252998	0.5731379390	1.2505037785	0.0000000000	0.0000000000	0.0000000000
2.4104257168	0.8020795584	0.6812252998	0.5731379390	1.2505037785	0.0000000000	0.0000000000	0.0000000000
2.4145960035	0.8020795584	0.6812252998	0.5731379390	1.2505037785	0.0000000000	0.0000000000	0.0000000000
2.4187662902	0.8020795584	0.6812252998	0.5731379390	1.2505037785	0.0000000000	0.0000000000	0.0000000000
2.4229365769	0.8020795584	0.6812252998	0.5731379390	1.2505037785	0.0000000000	0.0000000000	0.0000000000
2.4271068636	0.8020795584	0.6812252998	0.5731379390	1.2505037785	0.0000000000	0.0000000000	0.0000000000
2.4312771503	0.8020795584	0.6812252998	0.5731379390	1.2505037785	0.0000000000	0.0000000000	0.0000000000
2.4354474370	0.8020795584	0.6812252998	0.5731379390	1.2505037785	0.0000000000	0.0000000000	0.0000000000
2.4396177237	0.8020795584	0.6812252998	0.5731379390	1.2505037785	0.0000000000	0.0000000000	0.0000000000
2.4437880104	0.8020795584	0.6812252998	0.5731379390	1.2505037785	0.0000000000	0.0000000000	0.0000000000
2.4479582971	0.8020795584	0.6812252998	0.5731379390	1.2505037785	0.0000000000	0.0000000000	0.0000000000
2.4521285838	0.8020795584	0.6812252998	0.5731379390	1.2505037785	0.0000000000	0.0000000000	0.0000000000
2.4562988705	0.8020795584	0.6812252998	0.5731379390	1.2505037785	0.0000000000	0.0000000000	0.0000000000
2.4604691573	0.8020795584	0.6812252998	0.5731379390	1.2505037785	0.0000000000	0.0000000000	0.0000000000
2.4646394440	0.8020795584	0.6812252998	0.5731379390	1.2505037785	0.0000000000	0.0000000000	0.0000000000
2.4688097307	0.8020795584	0.6812252998	0.5731379390	1.2505037785	0.0000000000	0.0000000000	0.0000000000
2.4729800174	0.8020795584	0.6812252998	0.5731379390	1.2505037785	0.0000000000	0.0000000000	0.0000000000
2.4771503041	0.8020795584	0.6812252998	0.5731379390	1.2505037785	0.0000000000	0.0000000000	0.0000000000
2.4813205908	0.8020795584	0.6812252998	0.5731379390	1.2505037785	0.0000000000	0.0000000000	0.0000000000
2.4854908775	0.8020795584	0.6812252998	0.5731379390	1.2505037785	0.0000000000	0.0000000000	0.0000000000
2.4896611642	0.8020795584	0.6812252998	0.5731379390	1.2505037785	0.0000000000	0.0000000000	0.0000000000
2.4938314509	0.8020795584	0.6812252998	0.5731379390	1.2505037785	0.0000000000	0.0000000000	0.0000000000
2.4980017376	0.8020795584	0.6812252998	0.5731379390	1.2505037785	0.0000000000	0.0000000000	0.0000000000
2.5021720243	0.8020795584	0.6812252998	0.5731379390	1.2505037785	0.0000000000	0.0000000000	0.0000000000
2.5063423110	0.8020795584	0.6812252998	0.5731379390	1.2505037785	0.0000000000	0.0000000000	0.0000000000
2.5105125977	0.8020795584	0.6812252998	0.5731379390	1.2505037785	0.0000000000	0.0000000000	0.0000000000
2.5146828844	0.8020795584	0.6812252998	0.5731379390	1.2505037785	0.0000000000	0.0000000000	0.0000000000
2.5188531712	0.8020795584	0.6812252998	0.5731379390	1.2505037785	0.0000000000	0.0000000000	0.0000000000
2.5230234579	0.8020795584	0.6812252998	0.5731379390	1.2505037785	0.0000000000	0.0000000000	0.0000000000
2.5271937446	0.8020795584	0.6812252998	0.5731379390	1.2505037785	0.0000000000	0.0000000000	0.0000000000
2.5313640313	0.8020795584	0.6812252998	0.5731379390	1.2505037785	0.0000000000	0.0000000000	0.0000000000
2.5355343180	0.8020795584	0.6812252998	0.5731379390	1.2505037785	0.0000000000	0.0000000000	0.0000000000
2.5397046047	0.8020795584	0.6812252998	0.5731379390	1.2505037785	0.0000000000	0.0000000000	0.0000000000
2.5438748914	0.8020795584	0.6812252998	0.5731379390	1.2505037785	0.0000000000	0.0000000000	0.0000000000
2.5480451781	0.8020795584	0.6812252998	0.5731379390	1.2505037785	0.0000000000	0.0000000000	0.0000000000
2.5522154648	0.8020795584	0.6812252998	0.5731379390	1.2505037785	0.0000000000	0.0000000000	0.0000000000
2.5563857515	0.8020795584	0.6812252998	0.5731379390	1.2505037785	0.0000000000	0.0000000000	0.0000000000
2.5605560382	0.8020795584	0.6812252998	0.5731379390	1.2505037785	0.0000000000	0.0000000000	0.0000000000
2.5647263249	0.8020795584	0.6812252998	0.5731379390	1.2505037785	0.0000000000	0.0000000000	0.0000000000
2.5688966116	0.8020795584	0.6812252998	0.5731379390	1.2505037785	0.0000000000	0.0000000000	0.0000000000
2.5730668983	0.8020795584	0.6812252998	0.5731379390	1.2505037785	0.0000000000	0.0000000000	0.0000000000
2.5772371851	0.8020795584	0.6812252998	0.5731379390	1.2505037785	0.0000000000	0.0000000000	0.0000000000
2.5814074718	0.8020795584	0.6812252998	0.5731379390	1.2505037785	0.0000000000	0.0000000000	0.0000000000
2.5855777585	0.8020795584	0.6812252998	0.5731379390	1.2505037785	0.0000000000	0.0000000000	0.0000000000
2.5897480452	0.8020795584	0.6812252998	0.5731379390	1.2505037785	0.0000000000	0.0000000000	0.0000000000
2.5939183319	0.8020795584	0.6812252998	0.5731379390	1.2505037785	0.0000000000	0.0000000000	0.0000000000
2.5980886186	0.8020795584	0.6812252998	0.5731379390	1.2505037785	0.0000000000	0.0000000000	0.0000000000
2.6022589053	0.8020795584	0.6812252998	0.5731379390	1.2505037785	0.0000000000	0.0000000000	0.0000000000
2.6064291920	0.8020795584	0.6812252998	0.5731379390	1.2505037785	0.0000000000	0.0000000000	0.0000000000
2.6105994787	0.8020795584	0.6812252998	0.5731379390	1.2505037785	0.0000000000	0.0000000000	0.0000000000
2.6147697654	0.8020795584	0.6812252998	0.5731379390	1.2505037785	0.0000000000	0.0000000000	0.0000000000
2.6189400521	0.8020795584	0.6812252998	0.5731379390	1.2505037785	0.0000000000	0.0000000000	0.0000000000
2.6231103388	0.8020795584	0.6812252998	0.5731379390	1.2505037785	0.0000000000	0.0000000000	0.0000000000
2.6272806255	0.8020795584	0.6812252998	0.5731379390	1.2505037785	0.0000000000	0.0000000000	0.0000000000
2.6314509123	0.8020795584	0.6812252998	0.5731379390	1.2505037785	0.0000000000	0.0000000000	0.0000000000
2.6356211990	0.8020795584	0.6812252998	0.5731379390	1.2505037785	0.0000000000	0.0000000000	0.0000000000
2.6397914857	0.8020795584	0.6812252998	0.5731379390	1.2505037785	0.0000000000	0.0000000000	0.0000000000
2.6439617724	0.8020795584	0.6812252998	0.5731379390	1.2505037785	0.0000000000	0.0000000000	0.0000000000
2.6481320591	0.8020795584	0.6812252998	0.5731379390	1.2505037785	0.0000000000	0.0000000000	0.0000000000
2.6523023458	0.8020795584	0.6812252998	0.5731379390	1.2505037785	0.0000000000	0.0000000000	0.0000000000
2.6564726325	0.8020769358	0.6812252402	0.5731373429	1.2505054474	0.0000000000	0.0000000000	0.0000000000
2.6606429192	0.8020577431	0.6812247634	0.5731333494	1.2505173683	0.0000000000	0.0000000000	0.0000000000
2.6648132059	0.8020064235	0.6812233925	0.5731225014	1.2505494356	0.0000000000	0.0000000000	0.0000000000
2.6689834926	0.8019077778	0.6812207699	0.5731017590	1.2506114244	0.0000000000	0.0000000000	0.0000000000
2.6731537793	0.8017480373	0.6812165380	0.5730681419	1.2507114410	0.0000000000	0.0000000000	0.0000000000
2.6773240660	0.8015136123	0.6812103987	0.5730187893	1.2508584261	0.0000000000	0.0000000000	0.0000000000
2.6814943527	0.8011919260	0.6812018752	0.5729511380	1.2510601282	0.0000000000	0.0000000000	0.0000000000
2.6856646394	0.8007711172	0.6811907887	0.5728628039	1.2513239384	0.0000000000	0.0000000000	0.0000000000
2.6898349262	0.8002403975	0.6811770797	0.5727513433	1.2516564131	0.0000000000	0.0000000000	0.0000000000
2.6940052129	0.7995893955	0.6811605096	0.5726147294	1.2520642281	0.0000000000	0.0000000000	0.0000000000
2.6981754996	0.7988084555	0.6811408997	0.5724510550	1.2525531054	0.0000000000	0.0000000000	0.0000000000
2.7023457863	0.7978888750	0.6811184287	0.5722584724	1.2531282902	0.0000000000	0.0000000000	0.0000000000
2.7065160730	0.7968225479	0.6810930371	0.5720354915	1.2537947893	0.0000000000	0.0000000000	0.0000000000
2.7106863597	0.7956019044	0.6810651422	0.5717808008	1.2545568943	0.0000000000	0.0000000000	0.0000000000
2.7148566464	0.7942205071	0.6810348034	0.5714931488	1.2554181814	0.0000000000	0.0000000000	0.0000000000
2.7190269331	0.7926718593	0.6810023785	0.5711712837	1.2563824654	0.0000000000	0.0000000000	0.0000000000
2.7231972198	0.7909509540	0.6809684038	0.5708144903	1.2574523687	0.0000000000	0.0000000000	0.0000000000
2.7273675065	0.7890529037	0.6809334159	0.5704219341	1.2586302757	0.0000000000	0.0000000000	0.0000000000
2.7315377932	0.7869734764	0.6808979511	0.5699930191	1.2599183321	0.0000000000	0.0000000000	0.0000000000
2.7357080799	0.7847092152	0.6808629632	0.5695273876	1.2613179684	0.0000000000	0.0000000000	0.0000000000
2.7398783666	0.7822571993	0.6808292270	0.5690248013	1.2628302574	0.0000000000	0.0000000000	0.0000000000
2.7440486533	0.7796152234	0.6807976365	0.5684850216	1.2644555569	0.0000000000	0.0000000000	0.0000000000
2.7482189401	0.7767813802	0.6807693243	0.5679082870	1.2661944628	0.0000000000	0.0000000000	0.0000000000
2.7523892268	0.7737545371	0.6807456017	0.5672947764	1.2680467367	0.0000000000	0.0000000000	0.0000000000
2.7565595135	0.7705340981	0.6807275414	0.5666449070	1.2700114250	0.0000000000	0.0000000000	0.0000000000
2.7607298002	0.7671199441	0.6807166338	0.5659590364	1.2720878124	0.0000000000	0.0000000000	0.0000000000
2.7649000869	0.7635125518	0.6807143092	0.5652378798	1.2742744684	0.0000000000	0.0000000000	0.0000000000
2.7690703736	0.7597128749	0.6807220578	0.5644822717	1.2765697241	0.0000000000	0.0000000000	0.0000000000
2.7732406603	0.7557224631	0.6807416081	0.5636931062	1.2789714336	0.0000000000	0.0000000000	0.0000000000
2.7774109470	0.7515431643	0.6807745695	0.5628715158	1.2814772129	0.0000000000	0.0000000000	0.0000000000
2.7815812337	0.7471774817	0.6808227301	0.5620185137	1.2840842009	0.0000000000	0.0000000000	0.0000000000
2.7857515204	0.7426282763	0.6808879375	0.5611355901	1.2867900133	0.0000000000	0.0000000000	0.0000000000
2.7899218071	0.7378990054	0.6809719205	0.5602238774	1.2895907164	0.0000000000	0.0000000000	0.0000000000
2.7940920938	0.7329934835	0.6810767055	0.5592850447	1.2924830914	0.0000000000	0.0000000000	0.0000000000
2.7982623805	0.7279158235	0.6812039614	0.5583206415	1.2954635620	0.0000000000	0.0000000000	0.0000000000
2.8024326672	0.7226707935	0.6813558340	0.5573322773	1.2985279560	0.0000000000	0.0000000000	0.0000000000
2.8066029540	0.7172635198	0.6815342307	0.5563218594	1.3016719818	0.0000000000	0.0000000000	0.0000000000
2.8107732407	0.7116991878	0.6817408204	0.5552909970	1.3048918247	0.0000000000	0.0000000000	0.0000000000
2.8149435274	0.7059836388	0.6819775701	0.5542417765	1.3081827164	0.0000000000	0.0000000000	0.0000000000
2.8191138141	0.7001232505	0.6822462678	0.5531759262	1.3115398884	0.0000000000	0.0000000000	0.0000000000
2.8232841008	0.6941243410	0.6825487018	0.5520954132	1.3149588108	0.0000000000	0.0000000000	0.0000000000
2.8274543875	0.6879938841	0.6828864217	0.5510023236	1.3184345961	0.0000000000	0.0000000000	0.0000000000
2.8316246742	0.6817387342	0.6832612157	0.5498985648	1.3219624758	0.0000000000	0.0000000000	0.0000000000
2.8357949609	0.6753665209	0.6836744547	0.5487862825	1.3255372047	0.0000000000	0.0000000000	0.0000000000
